# xmcd
#
# Track frame offsets: 
#        150
#        51611
#        85148
#        162419
#
# Disc length: 2810 seconds
#
# Revision: 0
# Processed by: cddbd v1.5.2PL0 Copyright (c) Steve Scherf et al.
# Submitted via: ExactAudioCopy v0.99pb5
#
DISCID=300af804
DTITLE=Cream  - The Real One - Disc 2  RM 010
DYEAR=1900
DGENRE=
TTITLE0=Steppin' Out
TTITLE1=Traintime
TTITLE2=Toad
TTITLE3=I'm So Glad
EXTD=
EXTT0=
EXTT1=
EXTT2=
EXTT3=
PLAYORDER=
